<svg width="186" height="42" xmlns="http://www.w3.org/2000/svg" xmlns:xlink="http://www.w3.org/1999/xlink"><defs><path id="a" d="M0 .156h40.482v40.482H0z"/><path id="c" d="M0 .156h40.482v40.482H0z"/><path id="e" d="M0 41.844h182.005V.253H0z"/></defs><g fill="none" fill-rule="evenodd"><g transform="translate(0 .097)"><mask id="b" fill="#fff"><use xlink:href="#a"/></mask><path d="M39.646 40.638H.836A.836.836 0 0 1 0 39.8V.992C0 .53.375.156.836.156h38.81c.462 0 .836.374.836.836v38.809a.836.836 0 0 1-.836.837" fill="#FFF" mask="url(#b)"/></g><g transform="translate(46.048 .097)"><mask id="d" fill="#fff"><use xlink:href="#c"/></mask><path d="M39.646 40.638H.836A.836.836 0 0 1 0 39.8V.992C0 .53.375.156.836.156h38.81c.462 0 .836.374.836.836v38.809a.836.836 0 0 1-.836.837" fill="#FFF" mask="url(#d)"/></g><path fill="#FFF" d="M104.412 18.027h-2.666V11.19h-6.89v6.837H92.18V2.618h2.677v6.413h6.89V2.618h2.666zm5.006-5.609c0 1.178.243 2.1.73 2.767.487.667 1.165 1 2.032 1 .868 0 1.544-.338 2.027-1.016.483-.677.725-1.668.725-2.974 0-1.157-.249-2.074-.746-2.75-.498-.678-1.173-1.017-2.027-1.017-.84 0-1.506.334-2 1-.494.667-.74 1.664-.74 2.99zm-2.572-.223c0-1.121.223-2.132.667-3.031.445-.9 1.07-1.591 1.873-2.075.805-.483 1.729-.724 2.773-.724 1.545 0 2.8.497 3.762 1.492.963.994 1.484 2.314 1.561 3.958l.011.603c0 1.129-.217 2.137-.651 3.026-.434.89-1.055 1.577-1.863 2.064-.807.487-1.74.73-2.799.73-1.615 0-2.908-.538-3.878-1.613-.97-1.076-1.456-2.51-1.456-4.302v-.128zm19.24 2.72c0-.458-.189-.808-.566-1.048-.377-.24-1.004-.451-1.879-.634-.874-.184-1.605-.416-2.19-.699-1.284-.62-1.926-1.52-1.926-2.698 0-.988.416-1.813 1.249-2.477.832-.663 1.89-.994 3.174-.994 1.37 0 2.475.338 3.318 1.015.843.678 1.265 1.556 1.265 2.636h-2.572c0-.494-.183-.905-.55-1.233-.367-.328-.854-.493-1.46-.493-.565 0-1.026.131-1.382.392-.356.261-.534.61-.534 1.048 0 .395.166.702.497.92.332.22 1.002.44 2.011.662 1.009.222 1.8.487 2.376.794.575.306 1.001.675 1.28 1.106.28.43.418.952.418 1.566 0 1.03-.427 1.864-1.28 2.503-.854.638-1.972.957-3.355.957-.938 0-1.774-.17-2.508-.507-.734-.34-1.305-.805-1.714-1.398a3.307 3.307 0 0 1-.614-1.915h2.497c.036.607.265 1.074.688 1.402.424.328.985.492 1.683.492.677 0 1.192-.128 1.545-.386.353-.257.53-.594.53-1.01m12.233-2.721c0-1.143-.228-2.049-.683-2.72-.455-.67-1.106-1.005-1.952-1.005-1.052 0-1.807.434-2.265 1.302v5.08c.465.889 1.227 1.333 2.286 1.333.818 0 1.458-.33 1.92-.99.462-.659.694-1.659.694-3zm2.56.223c0 1.77-.401 3.184-1.206 4.238-.804 1.055-1.883 1.582-3.238 1.582-1.256 0-2.261-.413-3.016-1.238v5.429h-2.572V6.576h2.37l.107 1.164c.754-.917 1.78-1.375 3.08-1.375 1.396 0 2.492.52 3.285 1.56.794 1.041 1.19 2.485 1.19 4.334v.159z"/><mask id="f" fill="#fff"><use xlink:href="#e"/></mask><path d="M143.22 18.027h2.571V6.577h-2.572v11.45zm-.16-14.425c0-.395.126-.723.376-.984.251-.26.609-.391 1.075-.391.465 0 .825.13 1.079.391s.381.59.381.984c0 .388-.127.711-.381.969-.254.257-.614.386-1.08.386-.465 0-.823-.129-1.074-.386-.25-.258-.375-.58-.375-.969zm8.753.191v2.783h2.021v1.905h-2.021v6.392c0 .437.086.753.259.947.173.194.481.291.926.291.296 0 .596-.035.9-.105v1.989a6.348 6.348 0 0 1-1.694.243c-1.975 0-2.963-1.09-2.963-3.27V8.481h-1.884V6.576h1.884V3.793h2.572zm8 12.382c.508 0 .986-.123 1.434-.37a2.472 2.472 0 0 0 1.011-.996v-2.158h-1.386c-.953 0-1.669.166-2.149.497-.48.332-.72.8-.72 1.407 0 .495.165.888.493 1.18.328.293.767.44 1.317.44zm2.826 1.852c-.113-.22-.211-.575-.296-1.07-.819.854-1.82 1.281-3.006 1.281-1.15 0-2.088-.328-2.815-.984-.726-.656-1.09-1.467-1.09-2.434 0-1.22.453-2.157 1.36-2.81.907-.652 2.203-.978 3.89-.978h1.576v-.752c0-.593-.166-1.067-.497-1.423-.332-.356-.836-.535-1.514-.535-.585 0-1.065.147-1.439.44-.374.292-.56.664-.56 1.116h-2.572c0-.628.208-1.215.624-1.762.416-.547.983-.975 1.699-1.286.716-.31 1.515-.465 2.397-.465 1.34 0 2.409.337 3.206 1.01.797.674 1.207 1.621 1.228 2.842v5.164c0 1.03.144 1.852.434 2.466v.18h-2.625zm5.048 0h2.572V1.772h-2.572zm11.789-3.112c0-.458-.189-.808-.566-1.048-.377-.24-1.004-.451-1.878-.634-.875-.184-1.605-.416-2.19-.699-1.285-.62-1.927-1.52-1.927-2.698 0-.988.416-1.813 1.249-2.477.832-.663 1.89-.994 3.175-.994 1.368 0 2.474.338 3.317 1.015.843.678 1.265 1.556 1.265 2.636h-2.572c0-.494-.183-.905-.55-1.233-.367-.328-.854-.493-1.46-.493-.565 0-1.025.131-1.381.392-.357.261-.535.61-.535 1.048 0 .395.166.702.498.92.331.22 1.001.44 2.01.662 1.009.222 1.801.487 2.376.794.575.306 1.002.675 1.28 1.106.279.43.419.952.419 1.566 0 1.03-.427 1.864-1.28 2.503-.854.638-1.973.957-3.355.957-.939 0-1.775-.17-2.509-.507-.734-.34-1.305-.805-1.714-1.398a3.307 3.307 0 0 1-.614-1.915h2.498c.035.607.264 1.074.687 1.402.424.328.985.492 1.683.492.677 0 1.192-.128 1.545-.386.353-.257.53-.594.53-1.01M94.43 31.439h2.703c.8 0 1.411-.189 1.832-.565.42-.377.631-.92.631-1.632 0-.7-.213-1.259-.64-1.677-.427-.418-1.014-.633-1.761-.645h-2.766v4.519zm0 1.814v4.802h-2.251V25.106h4.954c1.446 0 2.595.377 3.446 1.13.851.755 1.277 1.752 1.277 2.992 0 1.27-.417 2.259-1.25 2.965-.833.707-2 1.06-3.5 1.06H94.43zm12.46 3.247c.426 0 .828-.104 1.205-.312.376-.207.66-.486.85-.836v-1.815h-1.166c-.8 0-1.402.14-1.806.418-.403.28-.604.673-.604 1.183 0 .416.137.746.413.992.276.246.645.37 1.107.37zm2.374 1.555c-.095-.183-.178-.483-.249-.897-.688.717-1.53 1.075-2.526 1.075-.966 0-1.755-.275-2.366-.827-.61-.551-.916-1.233-.916-2.045 0-1.026.381-1.813 1.143-2.361.762-.549 1.852-.823 3.269-.823h1.325v-.632c0-.498-.14-.896-.418-1.196-.279-.3-.703-.45-1.272-.45-.492 0-.895.124-1.21.37-.314.246-.471.559-.471.938h-2.161c0-.528.175-1.021.525-1.48.35-.46.825-.82 1.427-1.081.602-.26 1.273-.391 2.015-.391 1.126 0 2.024.283 2.694.849.67.566 1.014 1.362 1.032 2.388v4.34c0 .866.122 1.557.365 2.073v.15h-2.206zm5.879-4.695c0 .966.197 1.727.591 2.281.395.555.942.832 1.642.832.871 0 1.517-.374 1.938-1.121v-4.233c-.409-.73-1.05-1.095-1.92-1.095-.712 0-1.265.282-1.66.845-.394.564-.59 1.394-.59 2.49m-2.153-.186c0-1.494.351-2.687 1.054-3.58.702-.892 1.635-1.338 2.797-1.338 1.097 0 1.96.382 2.588 1.147l.098-.97h1.948v9.33c0 1.263-.393 2.26-1.179 2.989-.786.729-1.845 1.093-3.18 1.093a5.123 5.123 0 0 1-2.067-.44c-.673-.293-1.185-.677-1.534-1.151l1.022-1.3c.664.79 1.483 1.184 2.455 1.184.718 0 1.284-.194 1.699-.583.415-.388.622-.959.622-1.712v-.65c-.622.695-1.452 1.042-2.49 1.042-1.127 0-2.047-.448-2.761-1.343-.715-.896-1.072-2.135-1.072-3.718m14.684-3.184c-.593 0-1.072.208-1.437.622-.364.416-.597.994-.698 1.734h4.118v-.16c-.047-.723-.24-1.27-.578-1.64-.338-.371-.806-.556-1.405-.556m.258 8.244c-1.37 0-2.48-.43-3.331-1.293s-1.276-2.012-1.276-3.447v-.267c0-.96.185-1.819.556-2.575.37-.756.89-1.344 1.56-1.765a4.128 4.128 0 0 1 2.242-.631c1.31 0 2.322.418 3.037 1.254.714.836 1.071 2.018 1.071 3.548v.872h-6.287c.065.794.33 1.423.796 1.885.465.463 1.05.694 1.756.694.99 0 1.797-.4 2.42-1.2l1.164 1.111a3.893 3.893 0 0 1-1.543 1.339c-.643.317-1.365.475-2.165.475m10.93-2.793c0-.385-.158-.678-.476-.88-.317-.201-.843-.38-1.578-.533-.735-.154-1.35-.35-1.841-.587-1.08-.522-1.619-1.278-1.619-2.268 0-.83.35-1.524 1.05-2.081.7-.558 1.589-.836 2.668-.836 1.15 0 2.08.284 2.788.853.709.57 1.063 1.308 1.063 2.215h-2.161c0-.415-.155-.76-.463-1.036-.308-.276-.717-.414-1.227-.414-.475 0-.862.11-1.16.33-.3.219-.45.512-.45.88 0 .332.14.59.418.774.279.183.842.369 1.69.555.848.187 1.513.41 1.997.667.483.258.841.568 1.076.93.234.362.35.8.35 1.316 0 .866-.358 1.567-1.075 2.104-.718.536-1.657.804-2.82.804-.788 0-1.491-.142-2.107-.426-.617-.285-1.097-.676-1.441-1.174a2.779 2.779 0 0 1-.516-1.61h2.099c.03.51.222.903.578 1.178.356.276.827.414 1.414.414.57 0 1.002-.108 1.299-.325.296-.216.444-.5.444-.85m5.354.339c.404 0 .715.114.934.343.22.228.33.514.33.857 0 .339-.11.619-.33.841-.22.222-.53.333-.934.333-.385 0-.69-.11-.916-.329-.225-.219-.338-.5-.338-.845 0-.343.11-.63.33-.857.219-.229.527-.343.924-.343m7.693.729c.54 0 .988-.157 1.344-.471.355-.314.545-.703.569-1.165h2.037a3.176 3.176 0 0 1-.56 1.676c-.35.52-.825.93-1.424 1.232a4.24 4.24 0 0 1-1.939.453c-1.346 0-2.413-.435-3.201-1.307-.79-.872-1.183-2.075-1.183-3.61v-.223c0-1.464.39-2.637 1.174-3.518.782-.88 1.85-1.32 3.201-1.32 1.145 0 2.077.333 2.798 1 .72.667 1.098 1.543 1.134 2.628h-2.037c-.024-.551-.212-1.005-.565-1.36-.353-.356-.802-.534-1.347-.534-.7 0-1.24.253-1.619.76-.38.507-.572 1.276-.578 2.308v.347c0 1.044.188 1.822.565 2.335.376.513.92.77 1.632.77m7.337-3.167c0 .99.205 1.765.614 2.326.409.56.978.84 1.708.84.729 0 1.297-.284 1.703-.853.406-.57.609-1.403.609-2.5 0-.972-.209-1.743-.627-2.313-.418-.569-.986-.853-1.703-.853-.706 0-1.266.28-1.681.84-.415.56-.623 1.398-.623 2.513zm-2.16-.187c0-.943.186-1.792.56-2.548.373-.756.898-1.337 1.574-1.743.676-.406 1.452-.61 2.33-.61 1.298 0 2.352.419 3.162 1.255.81.836 1.246 1.944 1.312 3.326l.008.507c0 .949-.182 1.797-.547 2.544a4.044 4.044 0 0 1-1.565 1.734c-.679.409-1.463.613-2.352.613-1.358 0-2.445-.452-3.26-1.356-.815-.904-1.223-2.109-1.223-3.615v-.107zm12.806-4.723l.063 1.005c.675-.788 1.6-1.182 2.775-1.182 1.286 0 2.166.492 2.64 1.476.7-.984 1.685-1.476 2.954-1.476 1.061 0 1.851.293 2.37.88.519.587.784 1.453.796 2.597v6.324h-2.161v-6.262c0-.61-.133-1.058-.4-1.343-.267-.284-.709-.427-1.326-.427-.492 0-.893.132-1.205.396-.311.264-.529.61-.653 1.036l.009 6.6h-2.162v-6.333c-.03-1.132-.608-1.699-1.734-1.699-.866 0-1.48.353-1.841 1.059v6.973h-2.161v-9.624h2.036z" fill="#FFF" mask="url(#f)"/><path d="M5.213 3.726c0-.24.097-.476.289-.708a.898.898 0 0 1 .72-.348h4.969c.24 0 .484.104.732.312.248.208.372.456.372.744v12.411h15.892V3.727c0-.289.104-.537.312-.745.208-.208.472-.312.792-.312h4.753c.288 0 .564.096.828.288a.904.904 0 0 1 .396.768v33.536c0 .704-.408 1.056-1.224 1.056h-4.753a1.21 1.21 0 0 1-.768-.264c-.224-.176-.336-.44-.336-.792V22.69H12.295v14.572c0 .32-.116.576-.348.768-.232.192-.524.288-.876.288H6.22c-.671 0-1.008-.352-1.008-1.056V3.726zM72.086 14.12c0-.656-.124-1.296-.372-1.92a5.396 5.396 0 0 0-1.044-1.668 5.255 5.255 0 0 0-1.584-1.177 4.548 4.548 0 0 0-2.017-.444H60.42v10.395h6.65c.72 0 1.387-.144 2.004-.432a5.136 5.136 0 0 0 1.596-1.153 5.246 5.246 0 0 0 1.044-1.656 5.216 5.216 0 0 0 .372-1.945zM53.314 4.038c0-.416.112-.748.336-.996.224-.248.552-.372.984-.372h13.443c1.617 0 3.11.316 4.478.948a11.315 11.315 0 0 1 3.54 2.533 11.675 11.675 0 0 1 2.329 3.673c.56 1.392.84 2.84.84 4.345 0 1.472-.272 2.892-.816 4.26a11.54 11.54 0 0 1-2.293 3.637A11.248 11.248 0 0 1 72.65 24.6c-1.352.632-2.828.948-4.428.948H60.42v11.498c0 .849-.432 1.273-1.296 1.273H54.61c-.417 0-.737-.108-.96-.324-.225-.216-.337-.532-.337-.949V4.038z" fill="#3CA2E0" mask="url(#f)"/></g></svg>