<svg version="1.1" id="Слой_1" xmlns="http://www.w3.org/2000/svg" x="0" y="0" width="65.2" height="30.7" xml:space="preserve"><style>.st1{fill:#fff}</style><g id="Ui-Design"><g id="Search" transform="translate(-250 -30)"><g id="LOGO" transform="translate(250 30)"><g id="Group-32"><g id="Group-3" transform="translate(0 .097)"><defs><filter id="Adobe_OpacityMaskFilter" filterUnits="userSpaceOnUse" x="1.1" y=".2" width="29.6" height="30"><feColorMatrix values="1 0 0 0 0 0 1 0 0 0 0 0 1 0 0 0 0 0 1 0"/></filter></defs><mask maskUnits="userSpaceOnUse" x="1.1" y=".2" width="29.6" height="30" id="mask-2_1_"><g filter="url(#Adobe_OpacityMaskFilter)"><path id="path-1_1_" class="st1" d="M1.1.2h29.6v30H1.1z"/></g></mask><path id="Fill-1" d="M30.1 30.2H1.7c-.3 0-.6-.3-.6-.6V.8c0-.3.3-.6.6-.6H30c.3 0 .6.3.6.6v28.8c.1.3-.2.6-.5.6" mask="url(#mask-2_1_)" fill="#fff"/></g><g id="Group-6" transform="translate(46.048 .097)"><defs><filter id="Adobe_OpacityMaskFilter_1_" filterUnits="userSpaceOnUse" x="-11.3" y=".2" width="29.6" height="30"><feColorMatrix values="1 0 0 0 0 0 1 0 0 0 0 0 1 0 0 0 0 0 1 0"/></filter></defs><mask maskUnits="userSpaceOnUse" x="-11.3" y=".2" width="29.6" height="30" id="mask-4_1_"><g filter="url(#Adobe_OpacityMaskFilter_1_)"><path id="path-3_1_" class="st1" d="M-11.3.2h29.6v30h-29.6z"/></g></mask><path id="Fill-4" d="M17.7 30.2h-28.3c-.3 0-.6-.3-.6-.6V.8c0-.3.3-.6.6-.6h28.3c.3 0 .6.3.6.6v28.8c0 .3-.3.6-.6.6" mask="url(#mask-4_1_)" fill="#fff"/></g><defs><filter id="Adobe_OpacityMaskFilter_2_" filterUnits="userSpaceOnUse" x="4.9" y="2.1" width="22" height="26.4"><feColorMatrix values="1 0 0 0 0 0 1 0 0 0 0 0 1 0 0 0 0 0 1 0"/></filter></defs><mask maskUnits="userSpaceOnUse" x="4.9" y="2.1" width="22" height="26.4" id="mask-6_15_"><g filter="url(#Adobe_OpacityMaskFilter_2_)"><path id="path-5_15_" class="st1" d="M1.1 31.1h133V.3H1.1z"/></g></mask><path id="Fill-30" d="M4.9 2.9c0-.2.1-.4.2-.5.1-.2.3-.3.5-.3h3.6c.2 0 .4.1.5.2.2.2.3.3.3.6v9.2h11.6V2.9c0-.2.1-.4.2-.6.2-.2.3-.2.6-.2H26c.2 0 .4.1.6.2.2.1.3.3.3.6v24.9c0 .5-.3.8-.9.8h-3.5c-.2 0-.4-.1-.6-.2-.2-.1-.2-.3-.2-.6V16.9H10.1v10.8c0 .2-.1.4-.3.6-.2.1-.4.2-.6.2H5.7c-.5 0-.7-.3-.7-.8V2.9z" mask="url(#mask-6_15_)" fill="#3ca2e0"/><defs><filter id="Adobe_OpacityMaskFilter_3_" filterUnits="userSpaceOnUse" x="40.1" y="2.1" width="19" height="26.4"><feColorMatrix values="1 0 0 0 0 0 1 0 0 0 0 0 1 0 0 0 0 0 1 0"/></filter></defs><mask maskUnits="userSpaceOnUse" x="40.1" y="2.1" width="19" height="26.4" id="mask-6_16_"><g filter="url(#Adobe_OpacityMaskFilter_3_)"><path id="path-5_16_" class="st1" d="M1.1 31.1h133V.3H1.1z"/></g></mask><path id="Fill-31" d="M53.8 10.6c0-.5-.1-1-.3-1.4-.2-.5-.4-.9-.8-1.2-.3-.4-.7-.7-1.2-.9-.4-.2-.9-.3-1.5-.3h-4.9v7.7H50c.5 0 1-.1 1.5-.3.4-.2.8-.5 1.2-.9.3-.4.6-.8.8-1.2.2-.5.3-1 .3-1.5zM40.1 3.1c0-.3.1-.6.2-.7.2-.2.4-.3.7-.3h9.8c1.2 0 2.3.2 3.3.7 1 .5 1.9 1.1 2.6 1.9.7.8 1.3 1.7 1.7 2.7.4 1 .6 2.1.6 3.2s-.2 2.1-.6 3.2c-.4 1-1 1.9-1.7 2.7-.7.8-1.6 1.4-2.6 1.9s-2.1.7-3.2.7h-5.7v8.5c0 .6-.3.9-.9.9H41c-.3 0-.5-.1-.7-.2-.2-.2-.2-.4-.2-.7V3.1z" mask="url(#mask-6_16_)" fill="#3ca2e0"/></g></g></g></g></svg>