<?xml version="1.0" encoding="UTF-8"?>
<svg width="186px" height="42px" viewBox="0 0 186 42" version="1.1" xmlns="http://www.w3.org/2000/svg" xmlns:xlink="http://www.w3.org/1999/xlink">
    <!-- Generator: Sketch 52.2 (67145) - http://www.bohemiancoding.com/sketch -->
    <title>LOGO</title>
    <desc>Created with Sketch.</desc>
    <defs>
        <polygon id="path-1" points="7.59036145e-05 0.15560241 40.4820036 0.15560241 40.4820036 40.6375048 7.59036145e-05 40.6375048"></polygon>
        <polygon id="path-3" points="7.59036145e-05 0.15560241 40.4820036 0.15560241 40.4820036 40.6375048 7.59036145e-05 40.6375048"></polygon>
        <polygon id="path-5" points="0 41.8443976 182.005482 41.8443976 182.005482 0.253012048 0 0.253012048"></polygon>
    </defs>
    <g id="Ui-Design" stroke="none" stroke-width="1" fill="none" fill-rule="evenodd">
        <g id="Search" transform="translate(-250.000000, -30.000000)">
            <g id="LOGO" transform="translate(250.000000, 30.000000)">
                <g id="Group-32" transform="translate(-0.000000, 0.000000)">
                    <g id="Group-3" transform="translate(0.000000, 0.097410)">
                        <mask id="mask-2" fill="white">
                            <use xlink:href="#path-1"></use>
                        </mask>
                        <g id="Clip-2"></g>
                        <path d="M39.6455458,40.6375048 L0.836280723,40.6375048 C0.374533735,40.6375048 7.59036145e-05,40.263047 7.59036145e-05,39.801047 L7.59036145e-05,0.99203494 C7.59036145e-05,0.53003494 0.374533735,0.155577108 0.836280723,0.155577108 L39.6455458,0.155577108 C40.1075458,0.155577108 40.4820036,0.53003494 40.4820036,0.99203494 L40.4820036,39.801047 C40.4820036,40.263047 40.1075458,40.6375048 39.6455458,40.6375048" id="Fill-1" fill="#FFFFFF" mask="url(#mask-2)"></path>
                    </g>
                    <g id="Group-6" transform="translate(46.048193, 0.097410)">
                        <mask id="mask-4" fill="white">
                            <use xlink:href="#path-3"></use>
                        </mask>
                        <g id="Clip-5"></g>
                        <path d="M39.6455458,40.6375048 L0.836280723,40.6375048 C0.374533735,40.6375048 7.59036145e-05,40.263047 7.59036145e-05,39.801047 L7.59036145e-05,0.99203494 C7.59036145e-05,0.53003494 0.374533735,0.155577108 0.836280723,0.155577108 L39.6455458,0.155577108 C40.1075458,0.155577108 40.4820036,0.53003494 40.4820036,0.99203494 L40.4820036,39.801047 C40.4820036,40.263047 40.1075458,40.6375048 39.6455458,40.6375048" id="Fill-4" fill="#FFFFFF" mask="url(#mask-4)"></path>
                    </g>
                    <polygon id="Fill-7" fill="#FFFFFF" points="104.41243 18.0266024 101.745683 18.0266024 101.745683 11.1899639 94.8561651 11.1899639 94.8561651 18.0266024 92.1787916 18.0266024 92.1787916 2.61816867 94.8561651 2.61816867 94.8561651 9.03126506 101.745683 9.03126506 101.745683 2.61816867 104.41243 2.61816867"></polygon>
                    <path d="M109.418324,12.4178313 C109.418324,13.5958554 109.661469,14.5185904 110.148264,15.1852771 C110.635312,15.8517108 111.312625,16.1854337 112.180204,16.1854337 C113.048035,16.1854337 113.72383,15.8466506 114.207083,15.1693373 C114.690083,14.4920241 114.931963,13.5007229 114.931963,12.1954337 C114.931963,11.0384096 114.683252,10.121494 114.18583,9.44418072 C113.688408,8.76686747 113.012866,8.42808434 112.159204,8.42808434 C111.319457,8.42808434 110.65277,8.76155422 110.15889,9.42824096 C109.665011,10.0946747 109.418324,11.0915422 109.418324,12.4178313 Z M106.846457,12.1954337 C106.846457,11.0738313 107.068854,10.0627952 107.513396,9.16384337 C107.957686,8.26387952 108.582372,7.5726506 109.386445,7.08914458 C110.19077,6.60589157 111.115023,6.36451807 112.159204,6.36451807 C113.704095,6.36451807 114.958529,6.86193976 115.921493,7.85678313 C116.884457,8.85137349 117.404649,10.1705783 117.482324,11.8146506 L117.492951,12.4178313 C117.492951,13.5465181 117.276119,14.5552771 116.841951,15.4443614 C116.408035,16.3336988 115.787143,17.0213855 114.979276,17.5081807 C114.171661,17.9949759 113.238553,18.2381205 112.180204,18.2381205 C110.564722,18.2381205 109.27183,17.7002169 108.301782,16.6246627 C107.331481,15.5486024 106.846457,14.1145301 106.846457,12.3226988 L106.846457,12.1954337 Z" id="Fill-9" fill="#FFFFFF"></path>
                    <path d="M126.0861,14.9153386 C126.0861,14.4568807 125.8971,14.1074711 125.519859,13.8673627 C125.142618,13.6277602 124.51616,13.4159892 123.641498,13.2328084 C122.766582,13.0491217 122.036389,12.8166036 121.450919,12.5342422 C120.16663,11.9133506 119.524739,11.0138928 119.524739,9.83561566 C119.524739,8.84785663 119.940943,8.02253133 120.773606,7.35938675 C121.605763,6.69624217 122.664365,6.36454337 123.948401,6.36454337 C125.317196,6.36454337 126.422859,6.70307349 127.266148,7.38038675 C128.109184,8.0577 128.530955,8.93615783 128.530955,10.0155072 L125.959341,10.0155072 C125.959341,9.52188072 125.775654,9.11073614 125.408787,8.78257952 C125.041919,8.4546759 124.555124,8.29021807 123.948401,8.29021807 C123.383931,8.29021807 122.923449,8.4210253 122.567461,8.68188072 C122.210967,8.94324217 122.032847,9.2923988 122.032847,9.72985663 C122.032847,10.1248084 122.19857,10.431712 122.530269,10.6503145 C122.861714,10.8691699 123.532196,11.0895434 124.540955,11.311941 C125.549714,11.5343386 126.341895,11.7987361 126.916992,12.1056398 C127.491835,12.4122904 127.918413,12.7809289 128.197486,13.2115554 C128.476052,13.6419289 128.615461,14.1638928 128.615461,14.7777 C128.615461,15.807712 128.188377,16.6421458 127.334967,17.2807482 C126.481305,17.9190976 125.362992,18.2381458 123.980281,18.2381458 C123.041859,18.2381458 122.205907,18.0688807 121.472172,17.7306036 C120.738184,17.3918205 120.16663,16.9260253 119.757763,16.3334711 C119.348389,15.7406639 119.143702,15.1020614 119.143702,14.4179169 L121.641437,14.4179169 C121.676606,15.0248928 121.906088,15.491953 122.329124,15.8201096 C122.752666,16.1480133 123.313594,16.3122181 124.011907,16.3122181 C124.68922,16.3122181 125.2041,16.183688 125.557052,15.9261217 C125.909751,15.6685554 126.0861,15.3317964 126.0861,14.9153386" id="Fill-11" fill="#FFFFFF"></path>
                    <path d="M138.319637,12.195459 C138.319637,11.0523506 138.09218,10.1460614 137.637264,9.47557952 C137.181842,8.80585663 136.531348,8.47010964 135.684517,8.47010964 C134.632999,8.47010964 133.878264,8.90427831 133.419806,9.77210964 L133.419806,14.8518325 C133.885348,15.7406639 134.64742,16.185459 135.705517,16.185459 C136.524011,16.185459 137.164384,15.8557843 137.626637,15.1956759 C138.088384,14.5360735 138.319637,13.5361699 138.319637,12.195459 Z M140.880878,12.4178566 C140.880878,14.188688 140.478589,15.6015072 139.674264,16.6560614 C138.869939,17.7108687 137.790589,18.2381458 136.435963,18.2381458 C135.180011,18.2381458 134.174541,17.8254831 133.419806,17.0001578 L133.419806,22.4290373 L130.848192,22.4290373 L130.848192,6.57631446 L133.218661,6.57631446 L133.324673,7.74042289 C134.079408,6.82325422 135.105878,6.36454337 136.404083,6.36454337 C137.801216,6.36454337 138.896505,6.88473614 139.690204,7.9253747 C140.483902,8.96601325 140.880878,10.410459 140.880878,12.2589651 L140.880878,12.4178566 Z" id="Fill-13" fill="#FFFFFF"></path>
                    <mask id="mask-6" fill="white">
                        <use xlink:href="#path-5"></use>
                    </mask>
                    <g id="Clip-16"></g>
                    <path d="M143.219494,18.0266024 L145.791108,18.0266024 L145.791108,6.57628916 L143.219494,6.57628916 L143.219494,18.0266024 Z M143.060855,3.60213253 C143.060855,3.20743373 143.186096,2.87927711 143.436325,2.61816867 C143.68706,2.35706024 144.044819,2.22650602 144.510867,2.22650602 C144.97641,2.22650602 145.336193,2.35706024 145.589964,2.61816867 C145.844241,2.87927711 145.971253,3.20743373 145.971253,3.60213253 C145.971253,3.99025301 145.844241,4.3133494 145.589964,4.57066265 C145.336193,4.82822892 144.97641,4.95701205 144.510867,4.95701205 C144.044819,4.95701205 143.68706,4.82822892 143.436325,4.57066265 C143.186096,4.3133494 143.060855,3.99025301 143.060855,3.60213253 Z" id="Fill-15" fill="#FFFFFF" mask="url(#mask-6)"></path>
                    <path d="M151.812669,3.7927012 L151.812669,6.57633976 L153.833982,6.57633976 L153.833982,8.48076145 L151.812669,8.48076145 L151.812669,14.8728578 C151.812669,15.3103157 151.899199,15.6263277 152.072006,15.8201349 C152.244813,16.0144482 152.553488,16.1113518 152.99803,16.1113518 C153.294054,16.1113518 153.594127,16.0761831 153.897488,16.0055928 L153.897488,17.9950265 C153.311765,18.1569542 152.747295,18.2381711 152.204331,18.2381711 C150.228813,18.2381711 149.241054,17.1481952 149.241054,14.9682434 L149.241054,8.48076145 L147.35738,8.48076145 L147.35738,6.57633976 L149.241054,6.57633976 L149.241054,3.7927012 L151.812669,3.7927012 Z" id="Fill-17" fill="#FFFFFF" mask="url(#mask-6)"></path>
                    <path d="M159.813441,16.1747313 C160.321236,16.1747313 160.799429,16.0515145 161.24726,15.8043217 C161.695598,15.5576349 162.032357,15.2259361 162.258296,14.8094783 L162.258296,12.6505265 L160.87179,12.6505265 C159.919453,12.6505265 159.203176,12.8167554 158.723465,13.1482012 C158.243501,13.4799 158.003899,13.9487313 158.003899,14.5554542 C158.003899,15.0495867 158.168104,15.4427675 158.496007,15.7357554 C158.824164,16.0282373 159.263393,16.1747313 159.813441,16.1747313 Z M162.63908,18.0265265 C162.526236,17.8079241 162.427561,17.4516831 162.342802,16.9578036 C161.524308,17.8114663 160.522381,18.2380446 159.337272,18.2380446 C158.187333,18.2380446 157.248658,17.910141 156.52226,17.2540807 C155.79561,16.5980205 155.432284,15.7866108 155.432284,14.8201048 C155.432284,13.5995747 155.885429,12.6629241 156.792224,12.010406 C157.698513,11.357888 158.994947,11.0315024 160.681272,11.0315024 L162.258296,11.0315024 L162.258296,10.2800566 C162.258296,9.6872494 162.09232,9.21310482 161.760875,8.85686386 C161.428923,8.50062289 160.92467,8.3222494 160.247357,8.3222494 C159.661634,8.3222494 159.181923,8.46874337 158.807971,8.76147831 C158.434019,9.05421325 158.247296,9.42639398 158.247296,9.87776747 L155.675682,9.87776747 C155.675682,9.25004458 155.883658,8.66280361 156.299863,8.11579157 C156.71632,7.56928554 157.282561,7.14068313 157.998586,6.82998434 C158.71461,6.51979157 159.513622,6.36469518 160.395622,6.36469518 C161.73608,6.36469518 162.804802,6.70170723 163.602296,7.37497229 C164.399284,8.04899639 164.808658,8.99602048 164.829911,10.2165506 L164.829911,15.3807795 C164.829911,16.4112976 164.974128,17.2328277 165.263573,17.8466349 L165.263573,18.0265265 L162.63908,18.0265265 Z" id="Fill-18" fill="#FFFFFF" mask="url(#mask-6)"></path>
                    <polygon id="Fill-19" fill="#FFFFFF" mask="url(#mask-6)" points="167.686771 18.0266024 170.258639 18.0266024 170.258639 1.77159036 167.686771 1.77159036"></polygon>
                    <path d="M179.476348,14.9153386 C179.476348,14.4568807 179.287348,14.1074711 178.910107,13.8673627 C178.532613,13.6277602 177.906408,13.4159892 177.031746,13.2328084 C176.15683,13.0491217 175.426637,12.8166036 174.841167,12.5342422 C173.556878,11.9133506 172.914987,11.0138928 172.914987,9.83561566 C172.914987,8.84785663 173.331192,8.02253133 174.163854,7.35938675 C174.996011,6.69624217 176.054613,6.36454337 177.338649,6.36454337 C178.707445,6.36454337 179.813107,6.70307349 180.656396,7.38038675 C181.49918,8.0577 181.921204,8.93615783 181.921204,10.0155072 L179.349336,10.0155072 C179.349336,9.52188072 179.165902,9.11073614 178.799035,8.78257952 C178.432167,8.4546759 177.945372,8.29021807 177.338649,8.29021807 C176.77418,8.29021807 176.313698,8.4210253 175.95771,8.68188072 C175.601216,8.94324217 175.423095,9.2923988 175.423095,9.72985663 C175.423095,10.1248084 175.588818,10.431712 175.920517,10.6503145 C176.251963,10.8691699 176.922192,11.0895434 177.931204,11.311941 C178.939963,11.5343386 179.732143,11.7987361 180.30724,12.1056398 C180.882083,12.4122904 181.308661,12.7809289 181.587481,13.2115554 C181.866047,13.6419289 182.00571,14.1638928 182.00571,14.7777 C182.00571,15.807712 181.578625,16.6421458 180.725216,17.2807482 C179.871553,17.9190976 178.75324,18.2381458 177.370529,18.2381458 C176.432107,18.2381458 175.595902,18.0688807 174.86242,17.7306036 C174.12818,17.3918205 173.556878,16.9260253 173.148011,16.3334711 C172.738637,15.7406639 172.533951,15.1020614 172.533951,14.4179169 L175.031686,14.4179169 C175.066854,15.0248928 175.296336,15.491953 175.719372,15.8201096 C176.142914,16.1480133 176.703842,16.3122181 177.401902,16.3122181 C178.079469,16.3122181 178.594348,16.183688 178.947047,15.9261217 C179.299999,15.6685554 179.476348,15.3317964 179.476348,14.9153386" id="Fill-20" fill="#FFFFFF" mask="url(#mask-6)"></path>
                    <path d="M94.4290807,31.4387205 L97.1327675,31.4387205 C97.9335506,31.4387205 98.5440687,31.2502265 98.9650807,30.8739976 C99.3858398,30.4972627 99.5963458,29.9532867 99.5963458,29.2415639 C99.5963458,28.5422386 99.3830566,27.9833349 98.9562253,27.565359 C98.529141,27.1471301 97.942153,26.9323229 97.1950084,26.9204313 L94.4290807,26.9204313 L94.4290807,31.4387205 Z M94.4290807,33.2528169 L94.4290807,38.0554916 L92.1787916,38.0554916 L92.1787916,25.1060819 L97.1327675,25.1060819 C98.5794904,25.1060819 99.7284181,25.4830699 100.579298,26.2367928 C101.430177,26.9907687 101.855743,27.9878892 101.855743,29.2284072 C101.855743,30.4987807 101.439033,31.4870458 100.605864,32.1932024 C99.7729482,32.899612 98.6063096,33.2528169 97.1062012,33.2528169 L94.4290807,33.2528169 Z" id="Fill-21" fill="#FFFFFF" mask="url(#mask-6)"></path>
                    <path d="M106.889443,36.4991892 C107.316275,36.4991892 107.718058,36.3957072 108.09454,36.1879843 C108.471022,35.9805145 108.754142,35.7016952 108.944154,35.3520325 L108.944154,33.5374301 L107.778781,33.5374301 C106.978504,33.5374301 106.376588,33.6768398 105.973287,33.955406 C105.570239,34.2342253 105.368588,34.6284181 105.368588,35.1384904 C105.368588,35.5536831 105.50648,35.8838639 105.782263,36.1300446 C106.057793,36.3762253 106.426937,36.4991892 106.889443,36.4991892 Z M109.264214,38.0554663 C109.169335,37.8720325 109.086347,37.5722133 109.014998,37.1575265 C108.327311,37.8748157 107.485287,38.2333337 106.489178,38.2333337 C105.522672,38.2333337 104.734034,37.9578036 104.123263,37.4062373 C103.512745,36.8546711 103.207359,36.1733096 103.207359,35.360888 C103.207359,34.3349241 103.588395,33.5480566 104.350214,32.9995265 C105.112034,32.4509964 106.201504,32.1767313 107.618877,32.1767313 L108.944154,32.1767313 L108.944154,31.5452133 C108.944154,31.0472855 108.804492,30.6485386 108.525925,30.3489723 C108.247106,30.049912 107.823311,29.8998759 107.254034,29.8998759 C106.761925,29.8998759 106.358624,30.0228398 106.044636,30.2687675 C105.730142,30.5152012 105.573022,30.8279241 105.573022,31.2074422 L103.412046,31.2074422 C103.412046,30.679406 103.586877,30.1860325 103.936793,29.7263096 C104.286455,29.2670928 104.762371,28.9068036 105.364287,28.6456952 C105.965949,28.3850928 106.63719,28.2545386 107.378769,28.2545386 C108.505178,28.2545386 109.403371,28.537659 110.073347,29.1039 C110.743576,29.670141 111.087419,30.4661169 111.10513,31.4918277 L111.10513,35.8319964 C111.10513,36.6980566 111.226829,37.3887795 111.469973,37.9046711 L111.469973,38.0554663 L109.264214,38.0554663 Z" id="Fill-22" fill="#FFFFFF" mask="url(#mask-6)"></path>
                    <path d="M115.143202,33.3595373 C115.143202,34.3260434 115.340046,35.0865976 115.734492,35.6412 C116.128937,36.1955494 116.675696,36.4725976 117.375528,36.4725976 C118.247154,36.4725976 118.893347,36.0988988 119.314359,35.3520072 L119.314359,31.1186096 C118.905239,30.3891759 118.264865,30.0243325 117.393239,30.0243325 C116.681769,30.0243325 116.128937,30.306188 115.734492,30.8691398 C115.340046,31.4328506 115.143202,32.2627301 115.143202,33.3595373 M112.990829,33.1730675 C112.990829,31.6785253 113.34201,30.4855735 114.044624,29.592947 C114.747239,28.7005735 115.679588,28.2545133 116.841925,28.2545133 C117.938733,28.2545133 118.801504,28.6370675 119.429986,29.4016699 L119.527901,28.4323807 L121.475588,28.4323807 L121.475588,37.761947 C121.475588,39.0252361 121.08266,40.0213446 120.297311,40.7505253 C119.511455,41.479959 118.451588,41.8442964 117.117455,41.8442964 C116.411805,41.8442964 115.7226,41.6975494 115.049841,41.4040554 C114.376829,41.1108145 113.865239,40.7267422 113.515576,40.2525976 L114.538251,38.9538867 C115.202407,39.7425253 116.020648,40.1367181 116.993227,40.1367181 C117.710516,40.1367181 118.276757,39.9429108 118.691696,39.5542843 C119.106889,39.1659108 119.314359,38.5951157 119.314359,37.8424048 L119.314359,37.1929229 C118.691696,37.8866819 117.861564,38.2335614 116.823961,38.2335614 C115.697299,38.2335614 114.776841,37.7859831 114.062588,36.8905735 C113.347829,35.9951639 112.990829,34.7561639 112.990829,33.1730675" id="Fill-23" fill="#FFFFFF" mask="url(#mask-6)"></path>
                    <path d="M127.674712,29.9888349 C127.081652,29.9888349 126.602953,30.1965578 126.238363,30.6112446 C125.873772,31.0266904 125.640748,31.6048229 125.540049,32.3453892 L129.658073,32.3453892 L129.658073,32.1854855 C129.610507,31.4621241 129.417965,30.9153651 129.079941,30.5447024 C128.741917,30.1740398 128.273592,29.9888349 127.674712,29.9888349 M127.932784,38.2334855 C126.562977,38.2334855 125.452507,37.8021 124.601881,36.9395819 C123.751001,36.0768108 123.325688,34.9281361 123.325688,33.4933048 L123.325688,33.2261241 C123.325688,32.2656904 123.51064,31.4072205 123.881555,30.6514735 C124.251965,29.8954735 124.772158,29.3069675 125.442387,28.8859554 C126.112363,28.4651964 126.859254,28.2546904 127.683567,28.2546904 C128.993917,28.2546904 130.006218,28.6726663 130.720724,29.5088711 C131.43523,30.3445699 131.792483,31.5274012 131.792483,33.057112 L131.792483,33.9287386 L125.504628,33.9287386 C125.569652,34.7234494 125.835061,35.3519313 126.300604,35.8144373 C126.765893,36.2769434 127.351363,36.5081964 128.057013,36.5081964 C129.047302,36.5081964 129.853652,36.1081843 130.476314,35.3074012 L131.641435,36.4191361 C131.255845,36.9942325 130.741724,37.4405458 130.098314,37.7578229 C129.454905,38.074847 128.733061,38.2334855 127.932784,38.2334855" id="Fill-24" fill="#FFFFFF" mask="url(#mask-6)"></path>
                    <path d="M138.863335,35.440688 C138.863335,35.0553506 138.704696,34.7618566 138.387419,34.560459 C138.070395,34.3588084 137.543877,34.180941 136.808877,34.0266036 C136.073624,33.8725193 135.459817,33.676688 134.967961,33.4396157 C133.888612,32.9179048 133.34919,32.1621578 133.34919,31.1718687 C133.34919,30.3417361 133.698853,29.6477241 134.398684,29.0905916 C135.098263,28.533206 135.9876,28.2546398 137.066696,28.2546398 C138.217142,28.2546398 139.146455,28.5392783 139.854889,29.1083024 C140.563576,29.6775795 140.917793,30.4156157 140.917793,31.3229169 L138.756817,31.3229169 C138.756817,30.9077241 138.602227,30.5623627 138.294058,30.2868325 C137.985636,30.0110494 137.576769,29.8731578 137.066696,29.8731578 C136.592299,29.8731578 136.205443,29.9829651 135.90613,30.2023265 C135.606564,30.421688 135.457034,30.7151819 135.457034,31.0828084 C135.457034,31.4150133 135.59619,31.6728325 135.87501,31.8567723 C136.153576,32.040459 136.717034,32.2256639 137.564877,32.4123867 C138.41272,32.5993627 139.078142,32.8212542 139.561648,33.0793265 C140.044648,33.3373988 140.403419,33.6470855 140.637708,34.0088928 C140.871745,34.3707 140.988889,34.8094229 140.988889,35.3253145 C140.988889,36.1908687 140.630118,36.8919651 139.912829,37.4286036 C139.195287,37.9654952 138.2556,38.2334349 137.093516,38.2334349 C136.304877,38.2334349 135.60201,38.0912422 134.985672,37.8068566 C134.368829,37.5222181 133.888612,37.1308084 133.544769,36.6326277 C133.200925,36.1347 133.028877,35.5980614 133.028877,35.022712 L135.127865,35.022712 C135.157467,35.5327843 135.350263,35.925712 135.705998,36.2012422 C136.061733,36.4772783 136.533347,36.6149169 137.120082,36.6149169 C137.689359,36.6149169 138.12201,36.5066277 138.418793,36.2900494 C138.71507,36.0737241 138.863335,35.7908566 138.863335,35.440688" id="Fill-25" fill="#FFFFFF" mask="url(#mask-6)"></path>
                    <path d="M144.217373,35.7789651 C144.620675,35.7789651 144.93188,35.8930735 145.151241,36.1215434 C145.370602,36.3497602 145.48041,36.6356639 145.48041,36.9792542 C145.48041,37.3175313 145.370602,37.5976157 145.151241,37.8200133 C144.93188,38.0421578 144.620675,38.1534831 144.217373,38.1534831 C143.832036,38.1534831 143.526651,38.0439289 143.301217,37.8243145 C143.076036,37.604953 142.963193,37.3233506 142.963193,36.9792542 C142.963193,36.6356639 143.073,36.3497602 143.292614,36.1215434 C143.511723,35.8930735 143.820145,35.7789651 144.217373,35.7789651" id="Fill-26" fill="#FFFFFF" mask="url(#mask-6)"></path>
                    <path d="M151.910635,36.5080952 C152.450057,36.5080952 152.897888,36.3509747 153.253876,36.0369867 C153.609358,35.7227458 153.799117,35.3341193 153.8229,34.8716133 L155.859647,34.8716133 C155.835864,35.4704928 155.649141,36.0293964 155.299478,36.5480711 C154.94931,37.0672518 154.475165,37.4776373 153.876286,37.7799867 C153.277406,38.0823361 152.631213,38.2333843 151.937454,38.2333843 C150.59143,38.2333843 149.523972,37.7976976 148.735587,36.9260711 C147.946695,36.0544446 147.552502,34.8508663 147.552502,33.3150831 L147.552502,33.0926855 C147.552502,31.6285048 147.943912,30.455794 148.726731,29.575312 C149.509298,28.6945771 150.576755,28.2545892 151.928346,28.2545892 C153.072719,28.2545892 154.005322,28.588059 154.725647,29.2549988 C155.446225,29.9221916 155.823972,30.7983723 155.859647,31.883288 L153.8229,31.883288 C153.799117,31.3317217 153.610876,30.8783241 153.258177,30.5225892 C152.905225,30.1668542 152.456129,29.9887337 151.910635,29.9887337 C151.211057,29.9887337 150.671382,30.2422518 150.292117,30.749288 C149.912599,31.2563241 149.719804,32.0254807 149.713984,33.0570108 L149.713984,33.4041434 C149.713984,34.4475651 149.902225,35.2260831 150.278707,35.7389386 C150.655189,36.251794 151.199165,36.5080952 151.910635,36.5080952" id="Fill-27" fill="#FFFFFF" mask="url(#mask-6)"></path>
                    <path d="M159.248364,33.3417253 C159.248364,34.3320145 159.452798,35.1074964 159.861918,35.6676651 C160.271039,36.2278337 160.840316,36.5081711 161.569749,36.5081711 C162.29893,36.5081711 162.866689,36.2235325 163.272773,35.6545084 C163.678858,35.0849783 163.882027,34.2523157 163.882027,33.1550024 C163.882027,32.1829301 163.673039,31.4117494 163.255063,30.8424723 C162.837087,30.2734482 162.269328,29.9888096 161.551786,29.9888096 C160.846135,29.9888096 160.285966,30.268641 159.870773,30.8293157 C159.455834,31.3897373 159.248364,32.2272072 159.248364,33.3417253 Z M157.087135,33.1550024 C157.087135,32.2122795 157.273858,31.3629181 157.647557,30.6069181 C158.021002,29.8509181 158.545749,29.2700024 159.221798,28.8636651 C159.897593,28.4575807 160.67434,28.2546651 161.551786,28.2546651 C162.850243,28.2546651 163.904292,28.672641 164.713677,29.5088458 C165.523063,30.3445446 165.960267,31.4532434 166.025545,32.8346892 L166.0344,33.3417253 C166.0344,34.2905205 165.852231,35.1386169 165.487388,35.8855084 C165.122798,36.632653 164.601087,37.2105325 163.922255,37.619906 C163.243171,38.0287735 162.458834,38.2334602 161.569749,38.2334602 C160.211834,38.2334602 159.125147,37.7813277 158.309942,36.8773157 C157.494737,35.9730506 157.087135,34.7682072 157.087135,33.2617735 L157.087135,33.1550024 Z" id="Fill-28" fill="#FFFFFF" mask="url(#mask-6)"></path>
                    <path d="M169.894377,28.4324566 L169.956618,29.4374205 C170.632413,28.6487819 171.557425,28.2545892 172.731654,28.2545892 C174.017967,28.2545892 174.898449,28.7466976 175.372847,29.7309145 C176.072425,28.7466976 177.056895,28.2545892 178.325751,28.2545892 C179.387136,28.2545892 180.177293,28.5478301 180.695967,29.1348181 C181.214895,29.722059 181.480052,30.5878663 181.491943,31.7322398 L181.491943,38.0555169 L179.330714,38.0555169 L179.330714,31.7944807 C179.330714,31.1837096 179.19763,30.7358783 178.930449,30.4512398 C178.663775,30.1666012 178.222016,30.0244084 177.605425,30.0244084 C177.113064,30.0244084 176.711534,30.1562277 176.400076,30.4201193 C176.088871,30.6840108 175.871028,31.0293723 175.746546,31.4562036 L175.755654,38.0555169 L173.594172,38.0555169 L173.594172,31.7231313 C173.56457,30.5906494 172.986437,30.0244084 171.860028,30.0244084 C170.99422,30.0244084 170.380413,30.3773602 170.018859,31.0830108 L170.018859,38.0555169 L167.85763,38.0555169 L167.85763,28.4324566 L169.894377,28.4324566 Z" id="Fill-29" fill="#FFFFFF" mask="url(#mask-6)"></path>
                    <path d="M5.21343976,3.72623494 C5.21343976,3.48612651 5.30958434,3.25006627 5.50162048,3.01805422 C5.69365663,2.78629518 5.93376506,2.66990964 6.22169277,2.66990964 L11.1908494,2.66990964 C11.4309578,2.66990964 11.6748614,2.7741506 11.9230663,2.98212651 C12.1710181,3.19010241 12.294994,3.43805422 12.294994,3.72623494 L12.294994,16.1369819 L28.1866807,16.1369819 L28.1866807,3.72623494 C28.1866807,3.43805422 28.2906687,3.19010241 28.4988976,2.98212651 C28.7066205,2.7741506 28.970512,2.66990964 29.2910783,2.66990964 L34.0441627,2.66990964 C34.3320904,2.66990964 34.6083795,2.76605422 34.8722711,2.95809036 C35.1364157,3.15012651 35.268488,3.4061747 35.268488,3.72623494 L35.268488,37.2617169 C35.268488,37.9661024 34.8603795,38.3180422 34.0441627,38.3180422 L29.2910783,38.3180422 C29.0028976,38.3180422 28.7468494,38.230247 28.5226807,38.0541506 C28.298512,37.8780542 28.1866807,37.6139096 28.1866807,37.2617169 L28.1866807,22.6905 L12.294994,22.6905 L12.294994,37.2617169 C12.294994,37.5822831 12.1788614,37.8378253 11.9471024,38.0298614 C11.7148373,38.2221506 11.4226084,38.3180422 11.0706687,38.3180422 L6.22169277,38.3180422 C5.54969277,38.3180422 5.21343976,37.9661024 5.21343976,37.2617169 L5.21343976,3.72623494 Z" id="Fill-30" fill="#3CA2E0" mask="url(#mask-6)"></path>
                    <path d="M72.086447,14.1204759 C72.086447,13.4644157 71.9624711,12.8242952 71.7142663,12.2001145 C71.4660614,11.5759337 71.1181699,11.0200663 70.6700855,10.5315 C70.2220012,10.0436928 69.6939651,9.65177711 69.0859771,9.3555 C68.4774831,9.0594759 67.8052301,8.91121084 67.0694711,8.91121084 L60.4200614,8.91121084 L60.4200614,19.3057048 L67.0694711,19.3057048 C67.7895434,19.3057048 68.4574952,19.161741 69.0738325,18.8735602 C69.6896639,18.5853795 70.2220012,18.2015602 70.6700855,17.7213434 C71.1181699,17.2411265 71.4660614,16.6890542 71.7142663,16.0651265 C71.9624711,15.4409458 72.086447,14.7927289 72.086447,14.1204759 Z M53.3142181,4.0381988 C53.3142181,3.62224699 53.4260494,3.29029518 53.6504711,3.04209036 C53.8743867,2.79388554 54.2022904,2.66990964 54.6344349,2.66990964 L68.0774711,2.66990964 C69.6939651,2.66990964 71.1862301,2.9861747 72.5547723,3.6181988 C73.9230614,4.2504759 75.1031096,5.0945241 76.0954229,6.15059639 C77.0877361,7.20692169 77.8634711,8.43124699 78.4238928,9.82357229 C78.9840614,11.2158976 79.2641458,12.6643916 79.2641458,14.1685482 C79.2641458,15.6410783 78.9919048,17.0612349 78.4481819,18.4295241 C77.9037,19.7978133 77.1398566,21.009994 76.1553867,22.0663193 C75.1711699,23.1223916 74.0027602,23.9669458 72.6504108,24.5989699 C71.2980614,25.231247 69.8217361,25.547006 68.221688,25.547006 L60.4200614,25.547006 L60.4200614,37.0453916 C60.4200614,37.893994 59.9879169,38.3180422 59.1236277,38.3180422 L54.6106518,38.3180422 C54.194194,38.3180422 53.8743867,38.210006 53.6504711,37.9936807 C53.4260494,37.7778614 53.3142181,37.4621024 53.3142181,37.0453916 L53.3142181,4.0381988 Z" id="Fill-31" fill="#3CA2E0" mask="url(#mask-6)"></path>
                </g>
            </g>
        </g>
    </g>
</svg>