<?xml version="1.0" encoding="utf-8"?>
<!-- Generator: Adobe Illustrator 22.1.0, SVG Export Plug-In . SVG Version: 6.00 Build 0)  -->
<svg version="1.1" id="Слой_1" xmlns="http://www.w3.org/2000/svg" xmlns:xlink="http://www.w3.org/1999/xlink" x="0px" y="0px"
	 width="65.2px" height="30.7px" viewBox="0 0 65.2 30.7" style="enable-background:new 0 0 65.2 30.7;" xml:space="preserve">
<style type="text/css">
	.st0{filter:url(#Adobe_OpacityMaskFilter);}
	.st1{fill:#FFFFFF;}
	.st2{mask:url(#mask-2_1_);fill:#FFFFFF;}
	.st3{filter:url(#Adobe_OpacityMaskFilter_1_);}
	.st4{mask:url(#mask-4_1_);fill:#FFFFFF;}
	.st5{filter:url(#Adobe_OpacityMaskFilter_2_);}
	.st6{mask:url(#mask-6_15_);fill:#3CA2E0;}
	.st7{filter:url(#Adobe_OpacityMaskFilter_3_);}
	.st8{mask:url(#mask-6_16_);fill:#3CA2E0;}
</style>
<title>LOGO</title>
<desc>Created with Sketch.</desc>
<g id="Ui-Design">
	<g id="Search" transform="translate(-250.000000, -30.000000)">
		<g id="LOGO" transform="translate(250.000000, 30.000000)">
			<g id="Group-32" transform="translate(-0.000000, 0.000000)">
				<g id="Group-3" transform="translate(0.000000, 0.097410)">
					<g id="Clip-2">
					</g>
					<defs>
						<filter id="Adobe_OpacityMaskFilter" filterUnits="userSpaceOnUse" x="1.1" y="0.2" width="29.6" height="30">
							<feColorMatrix  type="matrix" values="1 0 0 0 0  0 1 0 0 0  0 0 1 0 0  0 0 0 1 0"/>
						</filter>
					</defs>
					<mask maskUnits="userSpaceOnUse" x="1.1" y="0.2" width="29.6" height="30" id="mask-2_1_">
						<g class="st0">
							<polygon id="path-1_1_" class="st1" points="1.1,0.2 30.7,0.2 30.7,30.2 1.1,30.2 							"/>
						</g>
					</mask>
					<path id="Fill-1" class="st2" d="M30.1,30.2H1.7c-0.3,0-0.6-0.3-0.6-0.6V0.8c0-0.3,0.3-0.6,0.6-0.6h28.3c0.3,0,0.6,0.3,0.6,0.6
						v28.8C30.7,29.9,30.4,30.2,30.1,30.2"/>
				</g>
				<g id="Group-6" transform="translate(46.048193, 0.097410)">
					<g id="Clip-5">
					</g>
					<defs>
						<filter id="Adobe_OpacityMaskFilter_1_" filterUnits="userSpaceOnUse" x="-11.3" y="0.2" width="29.6" height="30">
							<feColorMatrix  type="matrix" values="1 0 0 0 0  0 1 0 0 0  0 0 1 0 0  0 0 0 1 0"/>
						</filter>
					</defs>
					<mask maskUnits="userSpaceOnUse" x="-11.3" y="0.2" width="29.6" height="30" id="mask-4_1_">
						<g class="st3">
							<polygon id="path-3_1_" class="st1" points="-11.3,0.2 18.3,0.2 18.3,30.2 -11.3,30.2 							"/>
						</g>
					</mask>
					<path id="Fill-4" class="st4" d="M17.7,30.2h-28.3c-0.3,0-0.6-0.3-0.6-0.6V0.8c0-0.3,0.3-0.6,0.6-0.6h28.3
						c0.3,0,0.6,0.3,0.6,0.6v28.8C18.3,29.9,18,30.2,17.7,30.2"/>
				</g>
				<g id="Clip-16">
				</g>
				<defs>
					<filter id="Adobe_OpacityMaskFilter_2_" filterUnits="userSpaceOnUse" x="4.9" y="2.1" width="22" height="26.4">
						<feColorMatrix  type="matrix" values="1 0 0 0 0  0 1 0 0 0  0 0 1 0 0  0 0 0 1 0"/>
					</filter>
				</defs>
				<mask maskUnits="userSpaceOnUse" x="4.9" y="2.1" width="22" height="26.4" id="mask-6_15_">
					<g class="st5">
						<polygon id="path-5_15_" class="st1" points="1.1,31.1 134.1,31.1 134.1,0.3 1.1,0.3 						"/>
					</g>
				</mask>
				<path id="Fill-30" class="st6" d="M4.9,2.9c0-0.2,0.1-0.4,0.2-0.5c0.1-0.2,0.3-0.3,0.5-0.3h3.6c0.2,0,0.4,0.1,0.5,0.2
					c0.2,0.2,0.3,0.3,0.3,0.6v9.2h11.6V2.9c0-0.2,0.1-0.4,0.2-0.6c0.2-0.2,0.3-0.2,0.6-0.2H26c0.2,0,0.4,0.1,0.6,0.2
					c0.2,0.1,0.3,0.3,0.3,0.6v24.9c0,0.5-0.3,0.8-0.9,0.8h-3.5c-0.2,0-0.4-0.1-0.6-0.2c-0.2-0.1-0.2-0.3-0.2-0.6V16.9H10.1v10.8
					c0,0.2-0.1,0.4-0.3,0.6c-0.2,0.1-0.4,0.2-0.6,0.2H5.7c-0.5,0-0.7-0.3-0.7-0.8V2.9z"/>
				<defs>
					<filter id="Adobe_OpacityMaskFilter_3_" filterUnits="userSpaceOnUse" x="40.1" y="2.1" width="19" height="26.4">
						<feColorMatrix  type="matrix" values="1 0 0 0 0  0 1 0 0 0  0 0 1 0 0  0 0 0 1 0"/>
					</filter>
				</defs>
				<mask maskUnits="userSpaceOnUse" x="40.1" y="2.1" width="19" height="26.4" id="mask-6_16_">
					<g class="st7">
						<polygon id="path-5_16_" class="st1" points="1.1,31.1 134.1,31.1 134.1,0.3 1.1,0.3 						"/>
					</g>
				</mask>
				<path id="Fill-31" class="st8" d="M53.8,10.6c0-0.5-0.1-1-0.3-1.4c-0.2-0.5-0.4-0.9-0.8-1.2c-0.3-0.4-0.7-0.7-1.2-0.9
					c-0.4-0.2-0.9-0.3-1.5-0.3h-4.9v7.7h4.9c0.5,0,1-0.1,1.5-0.3c0.4-0.2,0.8-0.5,1.2-0.9c0.3-0.4,0.6-0.8,0.8-1.2
					C53.7,11.6,53.8,11.1,53.8,10.6z M40.1,3.1c0-0.3,0.1-0.6,0.2-0.7c0.2-0.2,0.4-0.3,0.7-0.3h9.8c1.2,0,2.3,0.2,3.3,0.7
					c1,0.5,1.9,1.1,2.6,1.9c0.7,0.8,1.3,1.7,1.7,2.7c0.4,1,0.6,2.1,0.6,3.2c0,1.1-0.2,2.1-0.6,3.2c-0.4,1-1,1.9-1.7,2.7
					c-0.7,0.8-1.6,1.4-2.6,1.9c-1,0.5-2.1,0.7-3.2,0.7h-5.7v8.5c0,0.6-0.3,0.9-0.9,0.9H41c-0.3,0-0.5-0.1-0.7-0.2
					c-0.2-0.2-0.2-0.4-0.2-0.7V3.1z"/>
			</g>
		</g>
	</g>
</g>
</svg>
